# xmcd
#
# Track frame offsets: 
#        182
#        15765
#        34175
#        53957
#        76935
#        98732
#        126032
#        146207
#        158555
#        178507
#        203172
#        221762
#        242600
#        252827
#        272190
#        295607
#        314207
#
# Disc length: 4384 seconds
#
# Revision: 4
# Processed by: cddbd v1.5.2PL0 Copyright (c) Steve Scherf et al.
# Submitted via: ExactAudioCopy v0.99pb5
#
DISCID=ee111e11
DTITLE=Various Artist - All Stars Romantic CD1
DYEAR=1995
DGENRE=Blues
TTITLE0=F.R. David - Words
TTITLE1=Laura Branigan - Self Control
TTITLE2=Boy George - Do You Really Want To Hurt Me
TTITLE3=Sined O'Conor - Fire On Babylon
TTITLE4=D-Emotion Project - Protourize Planinata
TTITLE5=L. Cohen - Dance Me To The End Of Love
TTITLE6=Matthews Souserh Comfort - Woodstock
TTITLE7=Rare Bird - Sympathy
TTITLE8=J. Last - Lonesome Shepherd
TTITLE9=C. Rea - And You My Love
TTITLE10=Youss On N'Door and Nenen Cherry - 7 Second
TTITLE11=Duran Duran - Come Undone
TTITLE12=Francis Goyd - God Father
TTITLE13=Sade - Smooth Operator
TTITLE14=Iggi Pop - In The Death Car
TTITLE15=Lionel Richie - Hello
TTITLE16=Orchestra G. Marinello - Word
EXTD=ID3G:   0
EXTT0=
EXTT1=
EXTT2=
EXTT3=
EXTT4=
EXTT5=
EXTT6=
EXTT7=
EXTT8=
EXTT9=
EXTT10=
EXTT11=
EXTT12=
EXTT13=
EXTT14=
EXTT15=
EXTT16=
PLAYORDER=
